<?xml version="1.0" standalone="no"?><!DOCTYPE svg PUBLIC "-//W3C//DTD SVG 1.1//EN"
  "http://www.w3.org/Graphics/SVG/1.1/DTD/svg11.dtd">
<svg t="1611996955630" class="icon" viewBox="0 0 1024 1024" version="1.1" xmlns="http://www.w3.org/2000/svg"
     p-id="38389" xmlns:xlink="http://www.w3.org/1999/xlink" width="200" height="200">
  <defs>
    <style type="text/css"></style>
  </defs>
  <path
    d="M412.672 537.088L350.208 599.04l-61.952-62.464-49.664 49.664 61.952 61.952-61.952 62.464 49.664 49.664 61.952-62.464 61.952 62.464 49.664-49.664-61.952-62.464 61.952-61.952-49.152-49.152z m148.992-224.256h223.744v74.752h-223.744V312.832z"
    fill="#63F7DE" p-id="38390"></path>
  <path
    d="M312.832 462.336h74.752V387.584h74.752V312.832H387.584V238.08H312.832v74.752H238.08v74.752h74.752v74.752z m248.832 199.168h223.744v74.752h-223.744v-74.752z m0-124.416h223.744v74.752h-223.744v-74.752z"
    fill="#437DFF" p-id="38391"></path>
  <path
    d="M860.672 64H163.84c-54.784 0-99.84 44.544-99.84 99.84v696.832c0 54.784 44.544 99.84 99.84 99.84h696.832c54.784 0 99.84-44.544 99.84-99.84V163.84c-0.512-55.296-45.056-99.84-99.84-99.84z m0 99.328V860.16H163.84V163.328h696.832z"
    fill="#437DFF" p-id="38392"></path>
</svg>
